HIERARCHY
ROOT Hips
{
	OFFSET -0.001795 -0.223333 0.028219
	CHANNELS 6 Xposition Yposition Zposition Zrotation Yrotation Xrotation 
	JOINT LeftUpLeg
	{
		OFFSET 0.069520 -0.091406 -0.006815
		CHANNELS 3 Zrotation Yrotation Xrotation
		JOINT LeftLeg
		{
			OFFSET 0.034277 -0.375199 -0.004496
			CHANNELS 3 Zrotation Yrotation Xrotation
			JOINT LeftFoot
			{
				OFFSET -0.013596 -0.397961 -0.043693
				CHANNELS 3 Zrotation Yrotation Xrotation
				JOINT LeftToe
				{
					OFFSET 0.026358 -0.055791 0.119288
					CHANNELS 3 Zrotation Yrotation Xrotation
					End Site
					{
						OFFSET 0.000000 0.000000 0.000000
					}
				}
			}
		}
	}
	JOINT RightUpLeg
	{
		OFFSET -0.067670 -0.090522 -0.004320
		CHANNELS 3 Zrotation Yrotation Xrotation
		JOINT RightLeg
		{
			OFFSET -0.038290 -0.382569 -0.008850
			CHANNELS 3 Zrotation Yrotation Xrotation
			JOINT RightFoot
			{
				OFFSET 0.015774 -0.398415 -0.042312
				CHANNELS 3 Zrotation Yrotation Xrotation
				JOINT RightToe
				{
					OFFSET -0.025372 -0.048144 0.123348
					CHANNELS 3 Zrotation Yrotation Xrotation
					End Site
					{
						OFFSET 0.000000 0.000000 0.000000
					}
				}
			}
		}
	}
	JOINT Spine
	{
		OFFSET -0.002533 0.108963 -0.026696
		CHANNELS 3 Zrotation Yrotation Xrotation
		JOINT Spine1
		{
			OFFSET 0.005487 0.135180 0.001092
			CHANNELS 3 Zrotation Yrotation Xrotation
			JOINT Spine2
			{
				OFFSET 0.001457 0.052922 0.025425
				CHANNELS 3 Zrotation Yrotation Xrotation
				JOINT Neck
				{
					OFFSET -0.002778 0.213870 -0.042857
					CHANNELS 3 Zrotation Yrotation Xrotation
					JOINT Head
					{
						OFFSET 0.005152 0.064970 0.051349
						CHANNELS 3 Zrotation Yrotation Xrotation
						End Site
						{
							OFFSET 0.000000 0.000000 0.000000
						}
					}
				}
				JOINT LeftShoulder
				{
					OFFSET 0.078845 0.121749 -0.034090
					CHANNELS 3 Zrotation Yrotation Xrotation
					JOINT LeftArm
					{
						OFFSET 0.090977 0.030469 -0.008868
						CHANNELS 3 Zrotation Yrotation Xrotation
						JOINT LeftForeArm
						{
							OFFSET 0.259612 -0.012772 -0.027456
							CHANNELS 3 Zrotation Yrotation Xrotation
							JOINT LeftHand
							{
								OFFSET 0.249234 0.008986 -0.001171
								CHANNELS 3 Zrotation Yrotation Xrotation
								End Site
								{
									OFFSET 0.000000 0.000000 0.000000
								}
							}
						}
					}
				}
				JOINT RightShoulder
				{
					OFFSET -0.081759 0.118833 -0.038615
					CHANNELS 3 Zrotation Yrotation Xrotation
					JOINT RightArm
					{
						OFFSET -0.096012 0.032551 -0.009143
						CHANNELS 3 Zrotation Yrotation Xrotation
						JOINT RightForeArm
						{
							OFFSET -0.253742 -0.013329 -0.021401
							CHANNELS 3 Zrotation Yrotation Xrotation
							JOINT RightHand
							{
								OFFSET -0.255298 0.007772 -0.005559
								CHANNELS 3 Zrotation Yrotation Xrotation
								End Site
								{
									OFFSET 0.000000 0.000000 0.000000
								}
							}
						}
					}
				}
			}
		}
	}
}
MOTION
Frames: 13
Frame Time: 0.050000
0.000000 0.934011 0.000000 -2.408807 10.864200 -3.788657 5.289820 -0.076355 2.337481 -9.705901 1.171412 35.038480 7.041784 14.384551 1.702149 0.000000 0.000000 0.000000 4.634231 1.698307 -12.745581 3.615106 -0.800870 17.219459 -3.749895 -9.587083 0.510422 0.000000 0.000000 0.000000 8.645006 -1.402798 10.779929 0.135132 0.275972 -5.527229 -4.098548 0.183570 14.993115 11.171252 -4.767727 -19.500794 0.000000 0.000000 0.000000 -23.711438 -17.804147 6.193200 -45.697835 -5.232903 -3.707972 -7.634786 -29.232367 2.845389 0.000000 0.000000 0.000000 24.349697 7.424736 4.916401 45.447063 13.280279 -1.287395 -2.221446 26.897298 0.817650 0.000000 0.000000 0.000000 
0.000381 0.936692 0.024732 -2.487744 9.535907 -3.870719 6.580933 -0.184914 -0.482775 -12.132701 2.384323 38.814360 6.658969 14.155580 3.377656 0.000000 0.000000 0.000000 5.861523 1.592205 -10.900794 2.646460 -0.463199 17.676135 -3.821883 -9.772910 0.343237 0.000000 0.000000 0.000000 9.804272 -1.516542 10.851256 -0.454120 0.542523 -6.450725 -4.069020 1.890066 15.637704 12.545542 -5.133925 -21.230339 0.000000 0.000000 0.000000 -22.840009 -18.074608 6.008578 -47.050000 -5.548890 -3.698602 -7.298308 -29.371039 2.717212 0.000000 0.000000 0.000000 22.487876 7.867191 5.331644 46.916937 13.482297 -1.219879 -1.775999 27.900562 1.016439 0.000000 0.000000 0.000000 
0.001501 0.938775 0.048704 -2.008294 8.314491 -4.882196 5.773575 -0.226930 -3.074687 -13.468505 3.300915 42.304225 9.818561 19.941478 5.891457 0.000000 0.000000 0.000000 6.065446 1.194778 -7.875808 2.176952 -0.246986 16.156374 -3.791032 -9.826872 1.091644 0.000000 0.000000 0.000000 9.563849 -1.645334 12.331357 -0.903396 0.760846 -7.910974 -3.534548 3.598405 16.541055 11.514967 -4.578632 -20.382380 0.000000 0.000000 0.000000 -22.996944 -18.801683 6.101356 -46.518815 -5.078119 -3.802146 -7.352058 -27.791557 2.545272 0.000000 0.000000 0.000000 23.000005 7.462921 5.469770 45.585359 14.310411 -1.144096 -1.289285 27.504055 1.120438 0.000000 0.000000 0.000000 
0.002916 0.940586 0.072114 -1.752025 7.952242 -5.357648 6.306710 -0.330163 -6.175513 -15.592789 4.453555 43.340198 10.370331 20.927577 6.801005 0.000000 0.000000 0.000000 5.777502 0.810347 -5.322132 2.547035 -0.320580 15.231123 -3.768210 -9.747914 0.717797 0.000000 0.000000 0.000000 9.676752 -1.619316 12.244602 -0.613039 0.619687 -7.333192 -4.086125 4.412604 16.248392 12.541928 -4.846465 -21.619848 0.000000 0.000000 0.000000 -23.905469 -19.280032 6.114373 -45.312925 -4.246161 -3.825899 -7.446806 -27.540169 2.511723 0.000000 0.000000 0.000000 23.465316 7.685426 5.827979 44.521426 15.329373 -0.833053 0.064946 27.260751 1.388109 0.000000 0.000000 0.000000 
0.004801 0.941810 0.095134 -1.572865 7.152136 -6.292086 6.486274 -0.446265 -9.676342 -16.800681 5.296266 44.128852 11.856367 23.317747 7.803106 0.000000 0.000000 0.000000 5.878134 0.363913 -2.293665 2.110234 -0.168385 14.154155 -3.782613 -9.712546 0.092462 0.000000 0.000000 0.000000 9.479790 -1.721012 13.442966 -0.727835 0.680435 -8.118882 -2.839447 5.400014 16.391337 12.662907 -5.107434 -20.701854 0.000000 0.000000 0.000000 -25.510373 -19.895733 6.333589 -44.771847 -3.712638 -3.873903 -7.178583 -26.475196 2.356739 0.000000 0.000000 0.000000 23.234348 7.315712 5.657569 43.324746 15.631317 -0.792060 0.821391 28.336181 1.624971 0.000000 0.000000 0.000000 
0.006870 0.942260 0.117849 -1.089258 6.173866 -6.658887 5.998045 -0.629481 -13.101064 -16.175784 5.216889 43.500012 11.714011 23.125133 6.956675 0.000000 0.000000 0.000000 5.349340 -0.002859 0.066448 2.101372 -0.130004 13.067247 -3.227452 -8.069752 -1.002750 0.000000 0.000000 0.000000 9.193680 -1.667662 13.599854 -0.647514 0.627562 -8.172923 -2.780832 5.825733 16.314991 12.498350 -5.012349 -20.741243 0.000000 0.000000 0.000000 -25.723733 -19.499885 6.142581 -45.188701 -3.508935 -4.003559 -6.615611 -26.251282 2.213923 0.000000 0.000000 0.000000 23.109223 8.407702 6.257524 43.806230 16.786549 -0.355972 0.496796 28.441360 1.550239 0.000000 0.000000 0.000000 
0.009139 0.942805 0.140237 -0.858389 4.641764 -7.014680 5.335491 -0.807052 -15.621111 -14.426570 4.512159 40.351311 11.668424 23.042950 6.800689 0.000000 0.000000 0.000000 5.019065 -0.361873 2.445116 1.521169 0.045421 12.275986 -2.606533 -6.094837 -2.048493 0.000000 0.000000 0.000000 9.179278 -1.667317 13.990966 -1.238018 0.831307 -7.935980 -2.194452 6.830625 15.929724 12.379922 -5.117377 -19.860236 0.000000 0.000000 0.000000 -25.733128 -19.266993 5.960821 -45.618095 -2.873444 -4.256793 -6.193033 -26.256088 2.112347 0.000000 0.000000 0.000000 23.399056 8.666075 6.446350 42.911697 17.618956 -0.102795 1.460332 29.911063 1.881308 0.000000 0.000000 0.000000 
0.011499 0.942510 0.162614 -0.472361 3.429001 -7.008733 4.483237 -1.043639 -18.032783 -11.572146 3.151605 34.742636 10.642326 21.367569 7.202553 0.000000 0.000000 0.000000 4.514646 -0.596689 4.122082 0.974858 0.194976 11.925650 -2.097384 -4.246066 -3.168498 0.000000 0.000000 0.000000 8.526576 -1.575640 14.132287 -1.294439 0.823095 -7.768939 -2.169955 7.612221 15.842058 11.877987 -4.650964 -20.379614 0.000000 0.000000 0.000000 -25.372472 -18.629829 5.546627 -46.046565 -2.559526 -4.431867 -6.220075 -26.691834 2.139407 0.000000 0.000000 0.000000 23.587742 9.156603 6.788984 42.720787 18.920352 0.324853 2.339582 31.206562 2.222470 0.000000 0.000000 0.000000 
0.014100 0.941179 0.185175 -0.573373 2.126715 -7.024608 4.419068 -1.066586 -18.881289 -8.708626 1.870409 26.072892 9.058519 18.825814 8.565238 0.000000 0.000000 0.000000 4.642654 -0.886790 6.080352 0.071263 0.390777 10.977879 -1.411818 -1.777659 -4.187041 0.000000 0.000000 0.000000 8.412510 -1.546400 14.258032 -1.532908 0.889357 -7.458526 -2.146629 8.540540 15.265671 11.851550 -4.509687 -20.668882 0.000000 0.000000 0.000000 -25.080668 -18.317201 5.261466 -46.003837 -1.957941 -4.594797 -6.207526 -26.578872 2.109053 0.000000 0.000000 0.000000 24.095759 9.365654 7.030151 41.997645 19.870653 0.613478 4.113211 32.450195 2.810311 0.000000 0.000000 0.000000 
0.017189 0.937708 0.208575 -0.854954 0.724767 -6.707831 4.931720 -0.926607 -18.754455 -6.067032 0.940915 15.898737 7.867616 16.861662 8.744722 0.000000 0.000000 0.000000 4.864843 -1.059955 7.186551 -0.311641 0.514962 11.480385 -1.205663 -0.422678 -5.390437 0.000000 0.000000 0.000000 8.504608 -1.549696 14.392858 -1.868391 1.002843 -7.934361 -2.114424 9.439760 15.375961 12.522244 -4.685597 -21.673265 0.000000 0.000000 0.000000 -24.507133 -17.777060 4.914699 -46.427007 -1.361971 -4.904664 -6.366572 -27.100322 2.172885 0.000000 0.000000 0.000000 24.811067 9.315924 7.178181 41.817970 20.951716 0.885083 4.886586 32.629998 3.063402 0.000000 0.000000 0.000000 
0.020918 0.932691 0.233388 -1.136819 -0.776908 -7.331879 6.199442 -0.581238 -16.975019 -3.957265 0.455163 5.632077 6.240135 14.250548 9.819560 0.000000 0.000000 0.000000 4.541614 -1.360079 9.612461 -0.156009 0.492051 11.149677 -0.924120 1.925609 -7.491004 0.000000 0.000000 0.000000 8.001770 -1.540457 15.274311 -2.251234 1.132096 -8.154900 -1.963717 10.388911 15.815537 14.058209 -5.475157 -22.437158 0.000000 0.000000 0.000000 -24.198483 -18.251376 5.181303 -46.475886 -1.884101 -4.771125 -4.789040 -25.612763 1.712271 0.000000 0.000000 0.000000 25.605960 8.997551 7.129084 41.979827 21.690904 1.079454 5.784614 34.173389 3.528828 0.000000 0.000000 0.000000 
0.026027 0.926010 0.259509 -1.652706 -2.006590 -7.249350 6.969878 -0.397315 -16.252376 -2.160536 0.254149 -0.255078 4.899585 12.007911 10.013098 0.000000 0.000000 0.000000 4.585075 -1.538840 10.987149 0.079237 0.476233 11.477579 -0.938251 2.815562 -8.553526 0.000000 0.000000 0.000000 7.475560 -1.411847 14.862892 -2.022299 1.009631 -7.559101 -2.050854 10.763224 16.159874 14.733682 -5.885628 -22.686892 0.000000 0.000000 0.000000 -24.035802 -18.719764 5.594854 -46.360606 -1.846128 -4.849482 -4.250062 -25.030148 1.581845 0.000000 0.000000 0.000000 26.747750 9.326516 7.427591 41.665553 22.037581 1.108125 6.057546 33.059709 3.416761 0.000000 0.000000 0.000000 
0.033388 0.919459 0.287126 -2.330795 -3.563925 -6.733589 7.768635 -0.222318 -16.157114 -2.170666 0.266984 -0.675212 4.496896 11.240117 10.159091 0.000000 0.000000 0.000000 4.106593 -1.566526 11.736388 0.348104 0.502092 12.681242 -0.854855 4.446667 -9.931449 0.000000 0.000000 0.000000 7.297514 -1.327685 14.378364 -2.051990 0.987339 -7.079343 -2.142652 10.915679 16.304662 14.986208 -6.220214 -22.330856 0.000000 0.000000 0.000000 -24.328340 -18.824214 5.915507 -45.679326 -2.516892 -4.584522 -4.079141 -23.965737 1.513555 0.000000 0.000000 0.000000 27.684365 9.242199 7.290512 42.280384 20.856261 0.750389 5.223965 32.478515 3.094856 0.000000 0.000000 0.000000 
